# xmcd
#
# Track frame offsets: 
#        150
#        11335
#        25839
#        39932
#        63086
#        77824
#        91321
#        106680
#        123371
#        135420
#        150450
#        166335
#        180486
#        196380
#        209298
#        223944
#        238645
#        251558
#        264443
#        281678
#
# Disc length: 3949 seconds
#
# Revision: 0
# Processed by: cddbd v1.5.2PL0 Copyright (c) Steve Scherf et al.
# Submitted via: ExactAudioCopy v1.1
#
DISCID=020f6b14
DTITLE=Various Artist - Het Beste Uit MENT Top 600 - CD 1
DYEAR=2017
DGENRE=Pop-Folk
TTITLE0=De Romeo's - Welkom Op Ons Feestival
TTITLE1=Christoff - 't Is Weer Tijd Voor De Polonaise
TTITLE2=Laura Lynn - Rechtop In De Wind
TTITLE3=Frank Galan - Hey
TTITLE4=Lissa Lewis - Boven De Wolken
TTITLE5=Jo Vally - We Dansen De Nacht Voorbij
TTITLE6=Michael Lanzo - Amore Mio
TTITLE7=Danny Fabry - Waarom Ik En Niet Een Ander
TTITLE8=Nick and Simon - Rosanne
TTITLE9=David Vandyck - Voel De Beat
TTITLE10=Sergio - Alleen Bij Jou
TTITLE11=Dennie Christian - Fiesta Mexicana
TTITLE12=Swoop - Lekkerbekje
TTITLE13=Dina Rodrigues - Este Amor Perdido
TTITLE14=Yves Segers - Waar Zijn Die Handjes
TTITLE15=Patrick Onzia - Vergeet Niet Te Leven
TTITLE16=Bart Kaëll - Zondagmorgen
TTITLE17=Rudy Meyns - Wanneer Zie Ik Je Weer?
TTITLE18=Lana Vega - Ik Zie Het In Je Ogen
TTITLE19=Guy Neve - Je Eerste Grote Liefde
EXTD=
EXTT0=
EXTT1=
EXTT2=
EXTT3=
EXTT4=
EXTT5=
EXTT6=
EXTT7=
EXTT8=
EXTT9=
EXTT10=
EXTT11=
EXTT12=
EXTT13=
EXTT14=
EXTT15=
EXTT16=
EXTT17=
EXTT18=
EXTT19=
PLAYORDER=
